<svg id="Layer_1" data-name="Layer 1" xmlns="http://www.w3.org/2000/svg" width="100" height="4269.03" viewBox="0 0 100 4269.03">
  <defs>
    <style>
      .cls-1 {
        fill: #330072;
      }

      .cls-2 {
        fill: #00c1d5;
      }

      .cls-3 {
        fill: #fff;
      }

      .cls-4 {
        fill: #222;
      }

      .cls-5 {
        fill: #121313;
      }

      .cls-6 {
        fill: #00d78f;
      }
    </style>
  </defs>
  <title>stratton_group</title>
  <g id="icons">
    <g id="user">
      <ellipse cx="50" cy="29.95" rx="24.96" ry="29.95"/>
      <path d="M97.19,84.52c-4.49-9-13-16.47-24-21-3-1-6.49-1-9,.5a29.72,29.72,0,0,1-16,4.49,29.72,29.72,0,0,1-16-4.49,11.23,11.23,0,0,0-9,0c-11,4.49-19.47,12-24,21-3.5,6.49,2,14,9.48,14H87.71C95.2,99,100.69,91.51,97.19,84.52Z" transform="translate(1.73 0.84)"/>
    </g>
  </g>
  <path id="search" class="cls-1" d="M95.9,500.15l-23-23a40.39,40.39,0,1,0-11.15,11.7l22.71,22.72A8.08,8.08,0,1,0,95.9,500.15ZM38.68,483A27.31,27.31,0,1,1,66,455.7,27.31,27.31,0,0,1,38.68,483Z" transform="translate(1.73 0.84)"/>
  <g id="miu">
    <g id="Artboard-1">
      <path id="editor-list-view-hambuger-menu-glyph" d="M.55,1247.56a2.25,2.25,0,0,0-2.28,2.29v4.51a2.27,2.27,0,0,0,2.28,2.29H96a2.25,2.25,0,0,0,2.28-2.29v-4.51a2.27,2.27,0,0,0-2.28-2.29Zm0,22.73a2.25,2.25,0,0,0-2.28,2.29v4.5a2.27,2.27,0,0,0,2.28,2.3H96a2.25,2.25,0,0,0,2.28-2.3v-4.5a2.27,2.27,0,0,0-2.28-2.29Zm0,22.73a2.25,2.25,0,0,0-2.28,2.29v4.5a2.27,2.27,0,0,0,2.28,2.3H96a2.26,2.26,0,0,0,2.28-2.3v-4.5A2.26,2.26,0,0,0,96,1293Z" transform="translate(1.73 0.84)"/>
    </g>
  </g>
  <path id="menu" d="M44.1,893.93h8.34v-25H44.1Zm4.17-62.5a41.67,41.67,0,1,0,41.67,41.66A41.65,41.65,0,0,0,48.27,831.43Zm0,75A33.34,33.34,0,1,1,81.6,873.09,33.37,33.37,0,0,1,48.27,906.43ZM44.1,860.59h8.34v-8.33H44.1Z" transform="translate(1.73 0.84)"/>
  <path class="cls-2" d="M29.17,1663.69l19.1,19.11,19.1-19.11,5.9,5.9-25,25-25-25Z" transform="translate(1.73 0.84)"/>
  <path class="cls-3" d="M29.17,2079.83l19.1,19.1,19.1-19.1,5.9,5.89-25,25-25-25Z" transform="translate(1.73 0.84)"/>
  <g id="layer1">
    <g id="g4305">
      <g id="g4345">
        <g id="text2994">
          <g id="text3769">
            <path id="path3774" class="cls-4" d="M45.74,2589q10.53,0,14.76-3.35a10.41,10.41,0,0,0,4.24-8.54,11.45,11.45,0,0,0-1.85-6.56A17.72,17.72,0,0,0,58,2565.8a39.93,39.93,0,0,0-7.1-3.68q-4-1.65-8.27-3.15c-2.73-1-5.45-2.12-8.13-3.35a30.67,30.67,0,0,1-7.18-4.51,21.3,21.3,0,0,1-5.12-6.42,19.5,19.5,0,0,1-2-9.23q0-9.71,5.81-15.92t16.88-7.86V2496H54.22v15.31a61.1,61.1,0,0,1,11.2,1.5,75.68,75.68,0,0,1,8.2,2.33L71,2525.76q-3.27-1.23-8.19-2.53a49.42,49.42,0,0,0-12.31-1.3q-8.19,0-12.64,3.14a11.27,11.27,0,0,0-3.14,14.22,12.72,12.72,0,0,0,3.76,3.9,30.33,30.33,0,0,0,5.81,3.07q3.34,1.36,7.44,2.87,5.34,2.05,10.12,4.24a36,36,0,0,1,8.4,5.26,23.85,23.85,0,0,1,5.81,7.31,22.11,22.11,0,0,1,2.19,10.25q0,9.7-5.88,15.65t-18.17,7.45v17.63H42.87V2599.7a60.19,60.19,0,0,1-15.58-2.12,50.59,50.59,0,0,1-9-3.49l3.42-10.24a67,67,0,0,0,9.84,3.55A52.65,52.65,0,0,0,45.74,2589Z" transform="translate(1.73 0.84)"/>
          </g>
        </g>
      </g>
    </g>
  </g>
  <path id="Close" class="cls-5" d="M55.55,2962.11l41.1-40.87a5,5,0,0,0,0-7.06,5.08,5.08,0,0,0-7.13,0L48.46,2955,7,2913.58a5,5,0,0,0-7.13,0,5.07,5.07,0,0,0,0,7.14l41.42,41.42L-.26,3003.47a5,5,0,0,0,0,7.05,5.08,5.08,0,0,0,7.13,0l41.52-41.3,41.28,41.29a5,5,0,1,0,7.13-7.15Z" transform="translate(1.73 0.84)"/>
  <path class="cls-6" d="M6,3428.23H90.58v-61.54H6ZM29,3355.15v-17.3a1.91,1.91,0,0,0-.54-1.39,1.87,1.87,0,0,0-1.38-.54H23.27a1.87,1.87,0,0,0-1.38.54,1.91,1.91,0,0,0-.54,1.39v17.3a1.85,1.85,0,0,0,1.92,1.93h3.85a1.85,1.85,0,0,0,1.92-1.93Zm46.15,0v-17.3a1.91,1.91,0,0,0-.54-1.39,1.87,1.87,0,0,0-1.38-.54H69.42a1.87,1.87,0,0,0-1.38.54,1.91,1.91,0,0,0-.54,1.39v17.3a1.85,1.85,0,0,0,1.92,1.93h3.85a1.85,1.85,0,0,0,1.92-1.93Zm23.08-3.84v76.92a7.79,7.79,0,0,1-7.69,7.69H6a7.42,7.42,0,0,1-5.41-2.28,7.4,7.4,0,0,1-2.28-5.41v-76.92a7.4,7.4,0,0,1,2.28-5.41A7.42,7.42,0,0,1,6,3343.62h7.69v-5.77a9.66,9.66,0,0,1,9.62-9.62h3.85a9.65,9.65,0,0,1,9.61,9.62v5.77H59.81v-5.77a9.65,9.65,0,0,1,9.61-9.62h3.85a9.66,9.66,0,0,1,9.62,9.62v5.77h7.69a7.79,7.79,0,0,1,7.69,7.69Z" transform="translate(1.73 0.84)"/>
  <path d="M91.37,3777.29l-7.92-22.62a15.39,15.39,0,0,0-14.52-10.3H27.61a15.39,15.39,0,0,0-14.52,10.3l-7.92,22.61a15.42,15.42,0,0,0-6.9,12.87v27.29a7.69,7.69,0,1,0,15.38,0v-4.85s20.32,1,34.62,1,34.62-1,34.62-1v4.85a7.69,7.69,0,1,0,15.38,0v-27.29A15.39,15.39,0,0,0,91.37,3777.29Zm-75.43-7.49,4.41-12.59a7.68,7.68,0,0,1,7.26-5.15H68.93a7.68,7.68,0,0,1,7.26,5.15l4.41,12.59a2.75,2.75,0,0,1-3,3.64,183.94,183.94,0,0,0-29.3-2.15,183.94,183.94,0,0,0-29.3,2.15A2.75,2.75,0,0,1,15.94,3769.8Zm-.36,28.41a5.77,5.77,0,1,1,5.77-5.77A5.77,5.77,0,0,1,15.58,3798.21Zm44.23-3.84H36.73a3.85,3.85,0,0,1,0-7.7H59.81a3.85,3.85,0,0,1,0,7.7ZM81,3798.21a5.77,5.77,0,1,1,5.77-5.77A5.77,5.77,0,0,1,81,3798.21Z" transform="translate(1.73 0.84)"/>
  <path d="M6,4260.5H90.58V4199H6ZM29,4187.42v-17.3a1.85,1.85,0,0,0-1.92-1.93H23.27a1.85,1.85,0,0,0-1.92,1.93v17.3a1.91,1.91,0,0,0,.54,1.39,1.87,1.87,0,0,0,1.38.54h3.85a1.87,1.87,0,0,0,1.38-.54A1.91,1.91,0,0,0,29,4187.42Zm46.15,0v-17.3a1.85,1.85,0,0,0-1.92-1.93H69.42a1.85,1.85,0,0,0-1.92,1.93v17.3a1.91,1.91,0,0,0,.54,1.39,1.87,1.87,0,0,0,1.38.54h3.85a1.87,1.87,0,0,0,1.38-.54A1.91,1.91,0,0,0,75.19,4187.42Zm23.08-3.84v76.92a7.79,7.79,0,0,1-7.69,7.69H6a7.42,7.42,0,0,1-5.41-2.28,7.4,7.4,0,0,1-2.28-5.41v-76.92a7.39,7.39,0,0,1,2.28-5.41A7.43,7.43,0,0,1,6,4175.88h7.69v-5.76a9.65,9.65,0,0,1,9.62-9.62h3.85a9.63,9.63,0,0,1,9.61,9.62v5.76H59.81v-5.76a9.63,9.63,0,0,1,9.61-9.62h3.85a9.65,9.65,0,0,1,9.62,9.62v5.76h7.69a7.8,7.8,0,0,1,7.69,7.7Z" transform="translate(1.73 0.84)"/>
</svg>
